# Blender v2.74 (sub 0) OBJ File: 'box.blend'
# www.blender.org
mtllib box.mtl
o Cube
v -1.727354 -1.000000 -1.437270
v -1.727354 -1.000000 0.562730
v 1.727354 -1.000000 0.562730
v 1.727354 -1.000000 -1.437271
v -1.727355 1.000000 -1.437270
v -1.727353 1.000000 0.562730
v 1.727354 1.000000 0.562730
v 1.727354 1.000000 -1.437270
v -1.618644 1.000000 -1.336492
v -1.618642 1.000000 0.461952
v 1.626752 1.000000 -1.336493
v 1.626752 1.000000 0.461952
v -1.618644 -0.809373 -1.336492
v -1.618642 -0.809373 0.461952
v 1.626752 -0.809373 -1.336493
v 1.626752 -0.809373 0.461952
v 1.626752 -0.809373 0.461952
v 1.626752 -0.809373 -1.336493
v -1.727353 0.919880 0.516908
v 1.727354 0.919881 0.516909
v -1.618642 -0.809373 0.461952
v -1.618644 -0.809373 -1.336492
vn 0.000000 1.000000 0.000000
vn 0.000000 -1.000000 0.000000
vn 1.000000 -0.000000 -0.000000
vn 0.000000 0.000000 -1.000000
vn -1.000000 0.000000 0.000000
vn 0.000000 -0.000000 1.000000
vn 0.000000 0.496500 -0.868100
usemtl Material
s off
f 1//1 2//1 3//1 4//1
f 8//2 7//2 12//2 11//2
f 1//3 5//3 6//3 2//3
f 2//4 6//4 7//4 3//4
f 3//5 7//5 8//5 4//5
f 5//6 1//6 4//6 8//6
f 11//3 12//3 16//3 15//3
f 7//2 6//2 10//2 12//2
f 5//2 8//2 11//2 9//2
f 6//2 5//2 9//2 10//2
f 15//6 16//6 17//6 18//6
f 12//6 10//6 14//6 16//6
f 9//4 11//4 15//4 13//4
f 10//5 9//5 13//5 14//5
f 13//6 15//6 18//6 22//6
f 14//6 13//6 22//6 21//6
f 16//6 14//6 21//6 17//6
f 22//2 18//2 17//2 21//2
f 6//7 7//7 20//7 19//7
o Cube.001
v -1.735055 0.916546 -1.471521
v -1.727354 0.990781 -1.469594
v -1.727354 0.477544 -2.096099
v 0.013300 0.477544 -2.096098
v -1.727354 0.509480 -2.117883
v 0.013300 0.509480 -2.117883
v -2.347517 0.461870 -1.469594
v -2.381716 0.488909 -1.469594
v 1.735055 0.916546 -1.471521
v 0.000000 0.958845 -1.447809
v 0.000000 0.990781 -1.469594
v 1.727354 0.990781 -1.469594
v 1.727354 0.477544 -2.096099
v -0.013300 0.477544 -2.096098
v 1.727354 0.509480 -2.117883
v -0.013300 0.509480 -2.117883
v 2.347517 0.461870 -1.469594
v 2.381716 0.488909 -1.469594
v -1.664783 0.909198 -0.437270
v -1.735055 0.916546 0.596980
v -1.727354 0.990781 0.595053
v -1.727354 0.990781 -0.437270
v -1.727354 0.477544 1.221558
v 0.013300 0.477544 1.221558
v -1.727354 0.509480 1.243343
v 0.013300 0.509480 1.243343
v -2.347517 0.461870 -0.437270
v -2.347517 0.461870 0.595053
v -2.381716 0.488909 -0.437270
v -2.381716 0.488909 0.595053
v 1.664783 0.909198 -0.437270
v 1.735055 0.916546 0.596980
v 0.000000 0.958845 0.573269
v 0.000000 0.990781 0.595053
v 1.727354 0.990781 0.595053
v 1.727354 0.990781 -0.437270
v 1.727354 0.477544 1.221558
v -0.013300 0.477544 1.221558
v 1.727354 0.509480 1.243343
v -0.013300 0.509480 1.243343
v 2.347517 0.461870 -0.437270
v 2.347517 0.461870 0.595053
v 2.381716 0.488909 -0.437270
v 2.381716 0.488909 0.595053
vn 0.009000 -0.184500 -0.982800
vn 0.996700 -0.062700 0.051400
vn -0.000000 0.563500 0.826100
vn -0.999900 -0.009300 -0.013600
vn -0.000000 -0.802900 0.596100
vn -0.005900 0.810300 -0.586000
vn 0.620200 0.784400 0.000000
vn 0.013300 -0.015600 0.999800
vn 0.608600 -0.793500 0.000000
vn -0.571300 0.820400 0.022300
vn -0.009000 -0.184500 -0.982800
vn -0.996700 -0.062700 0.051400
vn 0.999900 -0.009300 -0.013600
vn 0.005900 0.810300 -0.586000
vn -0.620200 0.784400 0.000000
vn -0.013300 -0.015600 0.999800
vn -0.608600 -0.793500 0.000000
vn 0.571300 0.820400 0.022300
vn 0.009000 -0.184500 0.982800
vn 0.996700 -0.062700 -0.051400
vn -0.000000 0.563500 -0.826100
vn -0.999900 -0.009300 0.013600
vn -0.000000 -0.802900 -0.596100
vn -0.005900 0.810300 0.586000
vn 0.013300 -0.015600 -0.999800
vn -0.571300 0.820400 -0.022300
vn -0.009000 -0.184500 0.982800
vn -0.996700 -0.062700 -0.051400
vn 0.999900 -0.009300 0.013600
vn 0.005900 0.810300 0.586000
vn -0.013300 -0.015600 -0.999800
vn 0.571300 0.820400 -0.022300
usemtl Material.001
s off
f 23//8 24//8 33//8 32//8
f 24//9 23//9 25//9 27//9
f 25//10 26//10 28//10 27//10
f 32//11 33//11 28//11 26//11
f 33//12 24//12 27//12 28//12
f 23//13 32//13 26//13 25//13
f 49//14 29//14 30//14 51//14
f 23//15 24//15 30//15 29//15
f 24//16 44//16 51//16 30//16
f 41//17 23//17 29//17 49//17
f 31//18 32//18 33//18 34//18
f 34//19 37//19 35//19 31//19
f 35//10 37//10 38//10 36//10
f 32//20 36//20 38//20 33//20
f 33//12 38//12 37//12 34//12
f 31//21 35//21 36//21 32//21
f 63//22 65//22 40//22 39//22
f 31//23 39//23 40//23 34//23
f 34//24 40//24 65//24 58//24
f 53//25 63//25 39//25 31//25
f 42//26 55//26 56//26 43//26
f 43//27 47//27 45//27 42//27
f 45//28 47//28 48//28 46//28
f 55//29 46//29 48//29 56//29
f 56//30 48//30 47//30 43//30
f 42//31 45//31 46//31 55//31
f 49//14 51//14 52//14 50//14
f 42//32 50//32 52//32 43//32
f 43//16 52//16 51//16 44//16
f 41//33 49//33 50//33 42//33
f 54//34 57//34 56//34 55//34
f 57//35 54//35 59//35 61//35
f 59//28 60//28 62//28 61//28
f 55//36 56//36 62//36 60//36
f 56//30 57//30 61//30 62//30
f 54//37 55//37 60//37 59//37
f 63//22 64//22 66//22 65//22
f 54//38 57//38 66//38 64//38
f 57//24 58//24 65//24 66//24
f 53//39 54//39 64//39 63//39
