# This file uses meters as units for non-parametric coordinates.

mtllib grass.mtl
v 0.000000 160.000000 0.000000
v 0.000000 0.000000 0.000000
v 0.000000 160.000000 -100.000000
v 0.000000 0.000000 -100.000000
vt 0.500000 1.000067
vt 0.500000 0.000067
vt 1.000000 -0.000067
vt 1.000000 0.999933
vn 1.000000 0.000000 0.000000
vn 1.000000 0.000000 0.000000
vn 1.000000 0.000000 0.000000
vn 1.000000 0.000000 0.000000
g pPlane1
usemtl lambert2SG
f 1/1/1 2/2/2 3/4/3
f 3/4/3 2/2/2 4/3/4
v 0.000000 160.000000 100.000000
v 0.000000 0.000000 100.000000
v 0.000000 160.000000 0.000000
v 0.000000 0.000000 0.000000
vt -0.000001 1.000067
vt -0.000050 0.000067
vt 0.500000 -0.000067
vt 0.500000 0.999933
vn 1.000000 0.000000 0.000000
vn 1.000000 0.000000 0.000000
vn 1.000000 0.000000 0.000000
vn 1.000000 0.000000 0.000000
g pPlane4
f 5/5/5 6/6/6 7/8/7
f 7/8/7 6/6/6 8/7/8
v -0.001270 160.000000 0.000000
v -0.001270 0.000000 0.000000
v 86.601273 160.000000 -50.000000
v 86.601273 0.000000 -50.000000
vt 0.500000 1.000067
vt 0.500000 0.000067
vt 1.000000 -0.000067
vt 1.000000 0.999933
vn 0.500000 0.000000 0.866025
vn 0.500000 0.000000 0.866025
vn 0.500000 0.000000 0.866025
vn 0.500000 0.000000 0.866025
g pPlane2
f 9/9/9 10/10/10 11/12/11
f 11/12/11 10/10/10 12/11/12
v 86.601273 160.000000 50.000000
v 86.601273 0.000000 50.000000
v -0.001270 160.000000 0.000000
v -0.001270 0.000000 0.000000
vt -0.000001 1.000067
vt -0.000050 0.000067
vt 0.500000 -0.000067
vt 0.500000 0.999933
vn 0.500000 0.000000 -0.866025
vn 0.500000 0.000000 -0.866025
vn 0.500000 0.000000 -0.866025
vn 0.500000 0.000000 -0.866025
g pPlane3
f 13/13/13 14/14/14 15/16/15
f 15/16/15 14/14/14 16/15/16
v -86.601273 160.000000 50.000000
v -86.601273 0.000000 50.000000
v 0.001270 160.000000 0.000000
v 0.001270 0.000000 0.000000
vt -0.000001 1.000067
vt -0.000050 0.000067
vt 0.500000 -0.000067
vt 0.500000 0.999933
vn 0.500000 0.000000 0.866025
vn 0.500000 0.000000 0.866025
vn 0.500000 0.000000 0.866025
vn 0.500000 0.000000 0.866025
g pPlane5
f 17/17/17 18/18/18 19/20/19
f 19/20/19 18/18/18 20/19/20
v 0.001270 160.000000 0.000000
v 0.001270 0.000000 0.000000
v -86.601273 160.000000 -50.000000
v -86.601273 0.000000 -50.000000
vt 0.500000 1.000067
vt 0.500000 0.000067
vt 1.000000 -0.000067
vt 1.000000 0.999933
vn 0.500000 0.000000 -0.866025
vn 0.500000 0.000000 -0.866025
vn 0.500000 0.000000 -0.866025
vn 0.500000 0.000000 -0.866025
g pPlane6
f 21/21/21 22/22/22 23/24/23
f 23/24/23 22/22/22 24/23/24
