# This file uses meters as units for non-parametric coordinates.

mtllib box2.mtl
v -17.371685 -10.004000 10.267132
v 17.371685 -10.004000 10.267132
v -17.371685 10.004000 10.267132
v 17.371685 10.004000 10.267132
v -17.371685 10.004000 -10.267132
v 17.371685 10.004000 -10.267132
v -17.371685 -10.004000 -10.267132
v 17.371685 -10.004000 -10.267132
v -16.587700 10.004000 9.429955
v 16.587700 10.004000 9.429955
v 16.587700 10.004000 -9.429955
v -16.587700 10.004000 -9.429955
v -16.587700 -9.373526 9.429955
v 16.587700 -9.373526 9.429955
v 16.587700 -9.373526 -9.429955
v -16.587700 -9.373526 -9.429955
v 17.371685 9.203760 10.267132
v -17.371685 9.203760 10.267132
v -17.371685 9.203760 -10.267132
v 17.371685 9.203760 -10.267132
v 17.371685 3.521706 17.567072
v -17.371685 3.521706 17.567072
v 17.371685 4.214733 17.967192
v -17.371685 4.214733 17.967192
v -24.614492 3.561709 10.267132
v -24.614492 3.561709 -10.267132
v -25.128878 4.174728 10.267132
v -25.128878 4.174728 -10.267132
v -17.371685 4.195978 -17.996632
v 17.371685 4.195978 -17.996632
v 17.371685 3.540461 -17.537632
v -17.371685 3.540461 -17.537632
v 24.642185 3.540460 -10.267132
v 24.642185 3.540460 10.267132
v 25.101185 4.195978 -10.267132
v 25.101185 4.195978 10.267132
vt 3.994299 -0.491528
vt 4.987366 -0.493393
vt 4.988397 0.869937
vt 3.995331 0.871803
vt -0.647177 1.747287
vt 1.707550 1.745506
vt 1.708563 3.084146
vt -0.646165 3.085928
vt -1.000947 1.334632
vt -0.007880 1.332754
vt -0.006849 2.704467
vt -0.999916 2.706344
vt 1.736806 2.348995
vt 4.202825 2.347129
vt 4.203927 3.804613
vt 1.737909 3.806479
vt -0.975726 -2.499452
vt -0.084858 -2.500556
vt -0.084227 -1.137225
vt -0.975096 -1.136122
vt -1.982433 -3.498934
vt -1.323189 -3.500037
vt -1.322158 -2.136706
vt -1.981401 -2.135603
vt 1.006614 -2.547451
vt 4.000501 -2.921905
vt 3.594893 -2.489855
vt 1.240166 -2.488074
vt 4.014435 -1.091835
vt 3.595906 -1.151214
vt 2.994299 -0.489953
vt 1.241179 -1.149432
vt -0.648251 0.327640
vt 1.706476 0.325858
vt 1.707517 1.701238
vt -0.647210 1.703020
vt -3.151241 0.864872
vt -3.152255 -0.473768
vt -1.776874 -0.474809
vt -1.775861 0.863832
vt 0.607226 0.282423
vt -1.747501 0.284205
vt -1.748541 -1.091176
vt 0.606186 -1.092957
vt -2.050971 2.256178
vt -2.051984 0.917537
vt -0.676604 0.916496
vt -0.675591 2.255137
vt 1.737944 3.853628
vt 4.203963 3.851762
vt 4.204000 3.900952
vt 1.737981 3.902818
vt -0.880517 -1.648309
vt -2.338001 -1.647206
vt -2.338028 -1.683716
vt -0.880545 -1.684819
vt 1.738018 3.952062
vt 4.204037 3.950197
vt 4.204072 3.996724
vt 1.738054 3.998589
vt -3.234425 -0.562325
vt -1.776941 -0.563428
vt -1.776916 -0.530850
vt -3.234400 -0.529747
vt -0.756999 3.690593
vt 1.709020 3.688728
vt 1.709325 4.092030
vt -0.756693 4.093895
vt -2.079945 2.024614
vt -2.079903 2.081414
vt -2.626749 1.670916
vt -2.598386 1.621705
vt 3.013130 -3.466576
vt 4.000087 -3.468441
vt -2.626056 2.586196
vt -2.626099 2.529396
vt -2.108268 2.125703
vt -2.079832 2.174872
vt -0.880128 -1.134229
vt -2.337612 -1.133126
vt -0.675248 2.709095
vt -0.675205 2.765895
vt -1.226109 2.352561
vt -1.189631 2.309023
vt 0.457126 -1.089552
vt 0.456023 -2.547035
vt -0.786460 2.814950
vt -0.786417 2.871749
vt -1.300194 3.272601
vt -1.336737 3.229117
vt 3.979452 0.056806
vt 2.994714 0.058672
vt -1.913887 3.591732
vt -1.913930 3.534933
vt -1.398188 3.132573
vt -1.365574 3.179075
vt 1.708987 3.644460
vt -0.757032 3.646326
vt -0.757423 3.130280
vt 1.708596 3.128414
vt -1.365686 3.031481
vt -1.365643 3.088280
vt -1.914580 2.676452
vt -1.882036 2.629901
vt -3.234814 -1.078372
vt -1.777331 -1.079474
vt -1.334659 3.378396
vt -1.334702 3.321597
vt -0.785765 3.733424
vt -0.818309 3.779975
vt 4.561958 -2.549732
vt 4.563060 -1.092249
vt -1.911541 4.094769
vt -1.911584 4.037969
vt -1.395842 3.635608
vt -1.363229 3.682110
vt 3.650494 -2.549317
vt 3.650494 -2.549317
vt 4.013332 -2.549317
vt 3.651597 -1.091835
vt 3.651597 -1.091835
vt 3.979038 -0.491819
vt 1.185578 -1.089969
vt 3.595906 -1.151214
vt 3.594893 -2.489855
vt 3.013544 -2.920039
vt 1.185578 -1.089969
vt 1.007717 -1.089969
vt 1.184475 -2.547451
vt 1.184475 -2.547451
vt 1.241179 -1.149432
vt 1.240166 -2.488074
vn 0.000000 0.000000 1.000000
vn 0.000000 0.000000 1.000000
vn 0.000000 0.000000 1.000000
vn 0.000000 0.000000 1.000000
vn 0.000000 1.000000 0.000000
vn 0.000000 1.000000 0.000000
vn 0.000000 1.000000 0.000000
vn 0.000000 1.000000 0.000000
vn 0.000000 0.000000 -1.000000
vn 0.000000 0.000000 -1.000000
vn 0.000000 0.000000 -1.000000
vn 0.000000 0.000000 -1.000000
vn 0.000000 -1.000000 0.000000
vn 0.000000 -1.000000 0.000000
vn 0.000000 -1.000000 0.000000
vn 0.000000 -1.000000 0.000000
vn 1.000000 0.000000 0.000000
vn 1.000000 0.000000 0.000000
vn 1.000000 0.000000 0.000000
vn 1.000000 0.000000 0.000000
vn -1.000000 0.000000 0.000000
vn -1.000000 0.000000 0.000000
vn -1.000000 0.000000 0.000000
vn -1.000000 0.000000 0.000000
vn -0.236391 0.886755 0.397221
vn 0.235812 0.886696 0.397698
vn 0.000000 1.000000 0.000000
vn 0.000000 1.000000 0.000000
vn 0.235812 0.886696 0.397698
vn 0.235269 0.886674 -0.398068
vn 0.000000 1.000000 0.000000
vn 0.000000 1.000000 0.000000
vn 0.235269 0.886674 -0.398068
vn -0.235847 0.886734 -0.397592
vn 0.000000 1.000000 0.000000
vn 0.000000 1.000000 0.000000
vn -0.235847 0.886734 -0.397592
vn -0.236391 0.886755 0.397221
vn 0.000000 1.000000 0.000000
vn 0.000000 1.000000 0.000000
vn 0.000000 0.000000 -1.000000
vn 0.000000 0.000000 -1.000000
vn 0.000000 0.000000 -1.000000
vn 0.000000 0.000000 -1.000000
vn -1.000000 0.000000 0.000000
vn -1.000000 0.000000 0.000000
vn -1.000000 0.000000 0.000000
vn -1.000000 0.000000 0.000000
vn 0.000000 0.000000 1.000000
vn 0.000000 0.000000 1.000000
vn 0.000000 0.000000 1.000000
vn 0.000000 0.000000 1.000000
vn 1.000000 0.000000 0.000000
vn 1.000000 0.000000 0.000000
vn 1.000000 0.000000 0.000000
vn 1.000000 0.000000 0.000000
vn 0.000000 -0.500000 0.866025
vn 0.000000 -0.500000 0.866025
vn 0.000000 -0.500000 0.866025
vn 0.000000 -0.500000 0.866025
vn -0.766044 -0.642788 0.000000
vn -0.766044 -0.642788 0.000000
vn -0.766044 -0.642788 0.000000
vn -0.766044 -0.642788 0.000000
vn 0.000000 -0.573577 -0.819152
vn 0.000000 -0.573577 -0.819152
vn 0.000000 -0.573577 -0.819152
vn 0.000000 -0.573577 -0.819152
vn 0.819152 -0.573577 0.000000
vn 0.819152 -0.573577 0.000000
vn 0.819152 -0.573577 0.000000
vn 0.819152 -0.573577 0.000000
vn 0.000000 -0.789126 -0.614232
vn 0.000000 -0.789126 -0.614232
vn 0.000000 -0.789126 -0.614232
vn 0.000000 -0.789126 -0.614232
vn 1.000000 0.000000 0.000000
vn 1.000000 0.000000 0.000000
vn 1.000000 0.000000 0.000000
vn 1.000000 0.000000 0.000000
vn 0.235812 0.886696 0.397698
vn -0.236391 0.886755 0.397221
vn 0.000000 0.799291 0.600944
vn 0.000000 0.799291 0.600944
vn -1.000000 0.000000 0.000000
vn -1.000000 0.000000 0.000000
vn -1.000000 0.000000 0.000000
vn -1.000000 0.000000 0.000000
vn 0.614535 -0.788890 0.000000
vn 0.614535 -0.788890 0.000000
vn 0.614535 -0.788890 0.000000
vn 0.614535 -0.788890 0.000000
vn -0.000001 0.000000 1.000000
vn -0.000001 0.000000 1.000000
vn -0.000001 0.000000 1.000000
vn -0.000001 0.000000 1.000000
vn -0.236391 0.886755 0.397221
vn -0.235847 0.886734 -0.397592
vn -0.600750 0.799437 0.000000
vn -0.600750 0.799437 0.000000
vn -0.000001 0.000000 -1.000000
vn -0.000001 0.000000 -1.000000
vn -0.000001 0.000000 -1.000000
vn -0.000001 0.000000 -1.000000
vn -0.235847 0.886734 -0.397592
vn 0.235269 0.886674 -0.398068
vn 0.000000 0.799459 -0.600721
vn 0.000000 0.799459 -0.600721
vn 1.000000 0.000002 0.000000
vn 1.000000 0.000002 0.000000
vn 1.000000 0.000002 0.000000
vn 1.000000 0.000002 0.000000
vn 0.000000 -0.788907 0.614513
vn 0.000000 -0.788907 0.614513
vn 0.000000 -0.788907 0.614513
vn 0.000000 -0.788907 0.614513
vn -1.000000 0.000001 0.000000
vn -1.000000 0.000001 0.000000
vn -1.000000 0.000001 0.000000
vn -1.000000 0.000001 0.000000
vn -0.614513 -0.788907 0.000000
vn -0.614513 -0.788907 0.000000
vn -0.614513 -0.788907 0.000000
vn -0.614513 -0.788907 0.000000
vn -0.000001 0.000000 -1.000000
vn -0.000001 0.000000 -1.000000
vn -0.000001 0.000000 -1.000000
vn -0.000001 0.000000 -1.000000
vn 0.235269 0.886674 -0.398068
vn 0.235812 0.886696 0.397698
vn 0.600721 0.799459 0.000000
vn 0.600721 0.799459 0.000000
vn 0.000000 0.000000 1.000000
vn 0.000000 0.000000 1.000000
vn 0.000000 0.000000 1.000000
vn 0.000000 0.000000 1.000000
g box:pCube1
usemtl lambert2SG
f 1/1/1 2/2/2 18/4/3
f 18/4/3 2/2/2 17/3/4
f 13/5/5 14/6/6 16/8/7
f 16/8/7 14/6/6 15/7/8
f 19/9/9 20/10/10 7/12/11
f 7/12/11 20/10/10 8/11/12
f 7/13/13 8/14/14 1/16/15
f 1/16/15 8/14/14 2/15/16
f 2/17/17 8/18/18 17/20/19
f 17/20/19 8/18/18 20/19/20
f 7/21/21 1/22/22 19/24/23
f 19/24/23 1/22/22 18/23/24
f 3/130/25 4/117/26 9/28/27
f 9/28/27 4/117/26 10/125/28
f 4/118/29 6/120/30 10/27/31
f 10/27/31 6/120/30 11/124/32
f 6/121/33 5/123/34 11/30/35
f 11/30/35 5/123/34 12/131/36
f 5/127/37 3/129/38 12/32/39
f 12/32/39 3/129/38 9/132/40
f 9/33/41 10/34/42 13/36/43
f 13/36/43 10/34/42 14/35/44
f 10/37/45 11/38/46 14/40/47
f 14/40/47 11/38/46 15/39/48
f 11/41/49 12/42/50 15/44/51
f 15/44/51 12/42/50 16/43/52
f 12/45/53 9/46/54 16/48/55
f 16/48/55 9/46/54 13/47/56
f 22/49/57 21/50/58 24/52/59
f 24/52/59 21/50/58 23/51/60
f 26/53/61 25/54/62 28/56/63
f 28/56/63 25/54/62 27/55/64
f 29/57/65 30/58/66 32/60/67
f 32/60/67 30/58/66 31/59/68
f 34/61/69 33/62/70 36/64/71
f 36/64/71 33/62/70 35/63/72
f 18/65/73 17/66/74 22/68/75
f 22/68/75 17/66/74 21/67/76
f 4/70/77 23/71/78 17/69/79
f 17/69/79 23/71/78 21/72/80
f 4/26/81 3/126/82 23/74/83
f 23/74/83 3/126/82 24/73/84
f 3/75/85 18/76/86 24/78/87
f 24/78/87 18/76/86 22/77/88
f 19/79/89 18/80/90 26/53/91
f 26/53/91 18/80/90 25/54/92
f 3/82/93 27/83/94 18/81/95
f 18/81/95 27/83/94 25/84/96
f 3/25/97 5/128/98 27/86/99
f 27/86/99 5/128/98 28/85/100
f 5/87/101 19/88/102 28/90/103
f 28/90/103 19/88/102 26/89/104
f 5/31/105 6/122/106 29/92/107
f 29/92/107 6/122/106 30/91/108
f 6/93/109 20/94/110 30/96/111
f 30/96/111 20/94/110 31/95/112
f 20/97/113 19/98/114 31/100/115
f 31/100/115 19/98/114 32/99/116
f 5/102/117 29/103/118 19/101/119
f 19/101/119 29/103/118 32/104/120
f 17/105/121 20/106/122 34/61/123
f 34/61/123 20/106/122 33/62/124
f 6/108/125 35/109/126 20/107/127
f 20/107/127 35/109/126 33/110/128
f 6/29/129 4/119/130 35/112/131
f 35/112/131 4/119/130 36/111/132
f 4/113/133 17/114/134 36/116/135
f 36/116/135 17/114/134 34/115/136
